<?xml version="1.0"?>

<svg version="1.1" id="Layer_1" xmlns="http://www.w3.org/2000/svg" xmlns:xlink="http://www.w3.org/1999/xlink" x="0px" y="0px" viewBox="0 0 221.44 42.52" style="enable-background:new 0 0 221.44 42.52;" xml:space="preserve">

<g>
&#x9;<path class="st0" d="M21.26,42.52C9.54,42.52,0,32.98,0,21.26C0,9.54,9.54,0,21.26,0c11.72,0,21.26,9.54,21.26,21.26&#xA;&#x9;&#x9;C42.52,32.98,32.98,42.52,21.26,42.52 M21.18,12.88c0.03,0,1.73,1.82,1.73,3.28c0,1.58-1.23,1.96-1.65,1.96&#xA;&#x9;&#x9;c-0.02,0-0.04,0-0.07-0.01h-0.02c-0.03,0-0.06,0.01-0.07,0.01c-0.41,0-1.65-0.38-1.65-1.96C19.45,14.7,21.15,12.88,21.18,12.88&#xA;&#x9;&#x9; M5.17,22.44h1.94v-3.58h3.26v-1.5H7.11v-1.99h3.36v-1.5h-5.3V22.44z M22.94,13.14h2.05l-2.38-8.57h-2.61l-2.46,8.57h1.89&#xA;&#x9;&#x9;l0.54-1.92h2.48L22.94,13.14z M22.09,9.77H20.3l0.83-3.73h0.14L22.09,9.77z M31.07,18.16c0,2.52,1.17,4.43,3.63,4.43&#xA;&#x9;&#x9;c2.47,0,3.65-1.91,3.65-4.43c0-2.52-1.18-4.43-3.65-4.43C32.24,13.73,31.07,15.64,31.07,18.16 M33.14,18.16&#xA;&#x9;&#x9;c0-1.65,0.4-2.98,1.57-2.98c1.17,0,1.59,1.34,1.59,2.98c0,1.64-0.42,2.98-1.59,2.98C33.54,21.14,33.14,19.8,33.14,18.16&#xA;&#x9;&#x9; M20.35,40.15c0.11-0.83,0.23-2.16,0.23-3.72v-0.26c0-2.19-0.08-2.94-1.54-3.42c-2.26-0.75-3.19-3.27-2.69-6.42L8.77,7.07&#xA;&#x9;&#x9;c-3.94,3.47-6.42,8.54-6.42,14.19C2.35,31.39,10.35,39.68,20.35,40.15 M21.25,27.87c-3.01-0.7-4.13-3.45-4.13-5.88L10.5,5.72&#xA;&#x9;&#x9;c-0.43,0.3-0.85,0.62-1.26,0.95c1.46,3.46,8,18.98,8.01,19c1.16,2.79,3.26,1.86,3.77,4.17c0.12,0.56,0.13,0.8,0.13,0.8h0.23&#xA;&#x9;&#x9;c0,0,0-0.24,0.13-0.8c0.51-2.3,2.61-1.38,3.77-4.17c0.01-0.02,6.55-15.55,8.01-19c-0.41-0.33-0.83-0.65-1.26-0.95L25.4,21.99&#xA;&#x9;&#x9;c0,2.44-1.12,5.18-4.13,5.88H21.25z M21.25,22.96c-1.28-0.28-2.87-1.55-3.08-3.19c-0.08-0.62-0.14-0.79-0.04-2.03L12.32,4.6&#xA;&#x9;&#x9;c-0.47,0.25-0.92,0.53-1.37,0.82C12.69,9.32,18,21.24,18,21.26c0.84,1.77,2.31,1.8,2.82,2.86c0.31,0.62,0.34,1.18,0.34,1.23h0.19&#xA;&#x9;&#x9;c0-0.05,0.03-0.6,0.34-1.23c0.51-1.06,1.99-1.09,2.82-2.86c0-0.02,5.32-11.94,7.05-15.84c-0.44-0.29-0.9-0.56-1.37-0.82l-5.8,13.15&#xA;&#x9;&#x9;c0.09,1.24,0.03,1.41-0.05,2.03c-0.21,1.63-1.8,2.9-3.07,3.19H21.25z M21.33,20.73l0.09-0.72c0.37-1.67,1.57-1.46,2.41-3.09&#xA;&#x9;&#x9;c0-0.01,0.01-0.02,0.01-0.02c0.02-0.06,4.13-8.88,5.85-12.56c-2.54-1.27-5.4-1.99-8.43-1.99c-3.03,0-5.89,0.72-8.44,1.99&#xA;&#x9;&#x9;c1.72,3.68,5.82,12.5,5.85,12.56c0,0,0.01,0.02,0.01,0.02c0.84,1.63,2.04,1.43,2.41,3.09l0.09,0.72H21.33z M40.17,21.26&#xA;&#x9;&#x9;c0-5.65-2.49-10.72-6.42-14.19l-7.58,19.25c0.5,3.15-0.43,5.67-2.69,6.42c-1.47,0.49-1.55,1.23-1.55,3.42v0.26&#xA;&#x9;&#x9;c0,1.56,0.12,2.89,0.22,3.72C32.17,39.68,40.17,31.39,40.17,21.26 M8.33,26.85c0,0,0.28,0.6,0.51,1.01&#xA;&#x9;&#x9;c0.23,0.42,0.53,0.93,0.53,0.93l-0.5,0.29c0,0-0.38-0.63-0.73-1.36c-0.1,0.05-0.69,0.36-0.79,0.41c0.06,0.11,0.67,1.29,0.67,1.29&#xA;&#x9;&#x9;l-0.5,0.29c0,0-0.62-1.21-0.67-1.31c-0.11,0.05-1.4,0.72-1.4,0.72l-0.31-0.61l3.16-1.64L8.33,26.85z M10.32,30.08l0.44,0.53&#xA;&#x9;&#x9;L8,32.92l-0.45-0.53l2.74-2.29L10.32,30.08z M12.88,32.5l0.55,0.39l-0.71,3.81l-0.63-0.36c0,0,0.16-0.78,0.17-0.85&#xA;&#x9;&#x9;c-0.03-0.02-0.4-0.24-0.75-0.49c-0.36-0.26-0.71-0.54-0.74-0.57c-0.07,0.04-0.76,0.45-0.76,0.45l-0.53-0.46l3.37-1.9L12.88,32.5z&#xA;&#x9;&#x9; M11.28,34.12c0.06,0.06,0.3,0.24,0.54,0.42c0.24,0.17,0.49,0.33,0.57,0.37c0.03-0.16,0.29-1.41,0.34-1.64&#xA;&#x9;&#x9;C12.52,33.38,11.43,34.03,11.28,34.12 M15.16,33.9c0,0,0.58,0.29,1.41,0.58c0.56,0.19,1.04,0.35,1.51,0.45l-0.16,0.55&#xA;&#x9;&#x9;c0,0-0.45-0.08-1.18-0.3c-0.04,0.12-0.99,2.83-0.99,2.83l-0.65-0.22c0,0,0.95-2.72,0.99-2.84c-0.68-0.26-1.16-0.51-1.16-0.51&#xA;&#x9;&#x9;L15.16,33.9z M26.53,34.63c0.24,0.12,0.41,0.34,0.5,0.65c0.04,0.13,0.06,0.26,0.06,0.38c0,0.5-0.35,0.9-0.99,1.1&#xA;&#x9;&#x9;c0,0-0.32,0.1-0.42,0.13c0.04,0.11,0.42,1.33,0.42,1.33l-0.63,0.16l-1.07-3.47l0.96-0.3C25.84,34.47,26.24,34.48,26.53,34.63&#xA;&#x9;&#x9; M25.19,35.28c0.03,0.11,0.3,0.95,0.33,1.06c0.13-0.04,0.42-0.13,0.42-0.13c0.09-0.03,0.32-0.12,0.43-0.32&#xA;&#x9;&#x9;c0.03-0.07,0.05-0.14,0.05-0.22c0-0.06-0.01-0.12-0.03-0.19c-0.04-0.12-0.12-0.22-0.23-0.28c-0.19-0.1-0.46-0.08-0.62-0.03&#xA;&#x9;&#x9;C25.54,35.17,25.28,35.25,25.19,35.28 M28.67,33.12l3.12,2.29l-0.55,0.39c0,0-0.63-0.48-0.69-0.52c-0.04,0.02-0.36,0.25-0.7,0.45&#xA;&#x9;&#x9;c-0.33,0.2-0.68,0.37-0.72,0.39c0.02,0.08,0.14,0.85,0.14,0.85l-0.6,0.28l-0.52-3.83L28.67,33.12z M29.03,35.54&#xA;&#x9;&#x9;c0.09-0.04,0.34-0.18,0.58-0.32c0.22-0.13,0.39-0.24,0.47-0.31c-0.13-0.1-1.1-0.84-1.3-0.99C28.82,34.17,29.01,35.38,29.03,35.54&#xA;&#x9;&#x9; M32.24,29.97l2.72,2.43l-0.49,0.57c0,0-2.55-0.75-2.94-0.85c0.29,0.27,1.87,1.94,1.87,1.94l-0.48,0.43l-2.56-2.61l0.6-0.54&#xA;&#x9;&#x9;c0,0,2.46,0.73,2.85,0.84c-0.29-0.27-1.99-1.73-1.99-1.73L32.24,29.97z M33.48,28.15l3.15,1.83l-0.32,0.55l-3.17-1.83L33.48,28.15z&#xA;&#x9;&#x9; M34.85,25.13l0.54,0.28l-0.05,0.06c-0.18,0.21-0.26,0.32-0.34,0.56c-0.04,0.11-0.09,0.32-0.01,0.48c0.04,0.08,0.11,0.14,0.22,0.18&#xA;&#x9;&#x9;c0.24,0.08,0.45-0.13,0.69-0.37c0.33-0.34,0.74-0.76,1.41-0.53c0.67,0.23,0.9,0.83,0.62,1.65c-0.08,0.25-0.24,0.47-0.38,0.66&#xA;&#x9;&#x9;l-0.04,0.04l-0.56-0.26l0.06-0.06c0.07-0.08,0.3-0.35,0.39-0.62c0.09-0.24,0.08-0.64-0.29-0.76c-0.3-0.1-0.53,0.13-0.79,0.4&#xA;&#x9;&#x9;c-0.32,0.34-0.69,0.72-1.29,0.51c-0.27-0.09-0.46-0.26-0.58-0.48c-0.14-0.27-0.14-0.62-0.01-0.99c0.08-0.25,0.22-0.5,0.37-0.7&#xA;&#x9;&#x9;L34.85,25.13z"></path>
&#x9;<polygon class="st0" points="50.58,14.22 54.81,14.22 54.81,15.44 52.12,15.44 52.12,17.72 54.69,17.72 54.69,18.94 52.12,18.94 &#xA;&#x9;&#x9;52.12,22.59 50.58,22.59 &#x9;"></polygon>
&#x9;<path class="st0" d="M58.17,16.32c1.26,0,2.71,0.66,2.71,3.18c0,2.59-1.45,3.19-2.71,3.19c-1.26,0-2.72-0.6-2.72-3.19&#xA;&#x9;&#x9;C55.45,16.98,56.91,16.32,58.17,16.32 M58.17,21.63c0.96,0,1.18-1.1,1.18-2.14c0-1.03-0.22-2.12-1.18-2.12&#xA;&#x9;&#x9;c-0.96,0-1.19,1.09-1.19,2.12C56.98,20.53,57.21,21.63,58.17,21.63"></path>
&#x9;<path class="st0" d="M64.61,16.32c1.26,0,2.71,0.66,2.71,3.18c0,2.59-1.45,3.19-2.71,3.19c-1.26,0-2.72-0.6-2.72-3.19&#xA;&#x9;&#x9;C61.88,16.98,63.35,16.32,64.61,16.32 M64.61,21.63c0.96,0,1.18-1.1,1.18-2.14c0-1.03-0.22-2.12-1.18-2.12&#xA;&#x9;&#x9;c-0.96,0-1.19,1.09-1.19,2.12C63.42,20.53,63.65,21.63,64.61,21.63"></path>
&#x9;<path class="st0" d="M73.56,13.59v7.94c0,0.44,0.01,0.83,0.05,1.05h-1.39c-0.02-0.18-0.05-0.54-0.05-0.96h-0.04&#xA;&#x9;&#x9;c-0.24,0.53-0.68,1.06-1.64,1.06c-1.54,0-2.17-1.46-2.17-3.18c0-2.01,0.8-3.19,2.13-3.19c0.89,0,1.38,0.5,1.59,0.98h0.02v-3.71&#xA;&#x9;&#x9;H73.56z M70.9,21.59c0.88,0,1.18-0.95,1.18-2.11c0-1.2-0.34-2.07-1.15-2.07c-0.83,0-1.11,0.8-1.11,2.04&#xA;&#x9;&#x9;C69.81,20.87,70.04,21.59,70.9,21.59"></path>
&#x9;<path class="st0" d="M78.34,16.77c0.42-0.19,1.01-0.46,1.96-0.46c1.92,0,2.36,0.94,2.36,2.48v2.7c0,0.44,0.05,0.85,0.08,1.09H81.4&#xA;&#x9;&#x9;c-0.07-0.24-0.08-0.54-0.08-0.84h-0.02c-0.37,0.5-0.84,0.94-1.73,0.94c-0.96,0-1.85-0.66-1.85-1.81c0-1.68,1.37-2.1,3.25-2.1h0.3&#xA;&#x9;&#x9;v-0.23c0-0.61-0.3-1.17-1.15-1.17c-0.74,0-1.4,0.36-1.69,0.6L78.34,16.77z M81.27,19.57h-0.13c-1.27,0-2.02,0.26-2.02,1.16&#xA;&#x9;&#x9;c0,0.56,0.37,0.95,0.94,0.95c0.89,0,1.21-0.66,1.21-1.76V19.57z"></path>
&#x9;<path class="st0" d="M84.04,17.43c0-0.38-0.01-0.74-0.05-1.02h1.39c0.01,0.31,0.05,0.64,0.05,0.95h0.02&#xA;&#x9;&#x9;c0.22-0.37,0.64-1.04,1.64-1.04c1.4,0,1.82,1.04,1.82,2.29v3.98h-1.49v-3.71c0-0.95-0.24-1.34-0.85-1.34&#xA;&#x9;&#x9;c-0.78,0-1.06,0.66-1.06,1.45v3.6h-1.49V17.43z"></path>
&#x9;<path class="st0" d="M95.33,13.59v7.94c0,0.44,0.01,0.83,0.05,1.05h-1.39c-0.02-0.18-0.05-0.54-0.05-0.96H93.9&#xA;&#x9;&#x9;c-0.24,0.53-0.68,1.06-1.64,1.06c-1.54,0-2.17-1.46-2.17-3.18c0-2.01,0.8-3.19,2.14-3.19c0.89,0,1.38,0.5,1.59,0.98h0.02v-3.71&#xA;&#x9;&#x9;H95.33z M92.67,21.59c0.88,0,1.18-0.95,1.18-2.11c0-1.2-0.34-2.07-1.15-2.07c-0.83,0-1.12,0.8-1.12,2.04&#xA;&#x9;&#x9;C91.58,20.87,91.81,21.59,92.67,21.59"></path>
&#x9;<path class="st0" d="M103.57,20.57h-2.88l-0.6,2.02h-1.54l2.81-8.37h1.68l2.7,8.37h-1.58L103.57,20.57z M103.24,19.4l-1.06-3.91&#xA;&#x9;&#x9;h-0.02l-1.15,3.91H103.24z"></path>
&#x9;<path class="st0" d="M106.67,23.55c0.35,0.19,1.04,0.53,1.82,0.53c1.4,0,1.63-0.97,1.63-1.94v-0.59h-0.02&#xA;&#x9;&#x9;c-0.24,0.48-0.66,1.04-1.63,1.04c-0.86,0-2.16-0.58-2.16-3.07c0-1.7,0.61-3.2,2.23-3.2c0.9,0,1.32,0.52,1.63,1.06h0.05&#xA;&#x9;&#x9;c0-0.33,0.04-0.64,0.05-0.96h1.34c-0.02,0.32-0.05,0.65-0.05,0.97v4.56c0,1.93-0.59,3.31-2.85,3.31c-0.98,0-1.76-0.25-2.12-0.39&#xA;&#x9;&#x9;L106.67,23.55z M108.82,21.5c0.94,0,1.31-0.67,1.31-2.07c0-1.29-0.49-1.99-1.2-1.98c-0.78,0.01-1.08,0.73-1.08,1.99&#xA;&#x9;&#x9;C107.84,20.89,108.31,21.5,108.82,21.5"></path>
&#x9;<path class="st0" d="M112.96,17.43c0-0.38-0.01-0.74-0.05-1.02h1.34c0.01,0.37,0.05,0.76,0.05,1.13h0.02&#xA;&#x9;&#x9;c0.18-0.48,0.65-1.22,1.57-1.22c0.1,0,0.17,0.02,0.25,0.03v1.39c-0.13-0.04-0.26-0.06-0.42-0.06c-0.61,0-1.28,0.37-1.28,1.52v3.38&#xA;&#x9;&#x9;h-1.49V17.43z"></path>
&#x9;<path class="st0" d="M117.26,13.79h1.54v1.46h-1.54V13.79z M117.28,16.41h1.49v6.18h-1.49V16.41z"></path>
&#x9;<path class="st0" d="M124.45,22.43c-0.35,0.13-0.86,0.25-1.46,0.25c-2.04,0-2.9-1.43-2.9-3.18c0-1.76,0.91-3.19,2.99-3.19&#xA;&#x9;&#x9;c0.47,0,1.02,0.14,1.3,0.25l-0.09,1.18c-0.26-0.13-0.63-0.3-1.04-0.3c-1.12,0-1.62,0.76-1.62,2.07c0,1.15,0.55,2.04,1.69,2.04&#xA;&#x9;&#x9;c0.36,0,0.85-0.17,1.06-0.3L124.45,22.43z"></path>
&#x9;<path class="st0" d="M130.24,21.57c0,0.39,0.01,0.74,0.05,1.02h-1.39c-0.01-0.31-0.05-0.64-0.05-0.95l-0.03-0.01l0.01,0.01&#xA;&#x9;&#x9;c-0.29,0.45-0.67,1.04-1.64,1.04c-1.4,0-1.82-1.04-1.82-2.29v-3.98h1.49v3.71c0,0.95,0.26,1.34,0.89,1.34&#xA;&#x9;&#x9;c0.79,0,1.02-0.72,1.02-1.51v-3.54h1.49V21.57z"></path>
&#x9;<rect x="131.72" y="13.59" class="st0" width="1.49" height="8.99"></rect>
&#x9;<path class="st0" d="M135.25,15.14l1.49-0.46v1.73h1.23v1.09h-1.23v3.2c0,0.66,0.24,0.85,0.67,0.85c0.26,0,0.46-0.07,0.56-0.13&#xA;&#x9;&#x9;v1.05c-0.23,0.11-0.55,0.2-0.99,0.2c-1.1,0-1.73-0.5-1.73-1.8V17.5h-0.98v-1.09h0.98V15.14z"></path>
&#x9;<path class="st0" d="M143.8,21.57c0,0.39,0.01,0.74,0.05,1.02h-1.39c-0.01-0.31-0.05-0.64-0.05-0.95l-0.03-0.01l0.01,0.01&#xA;&#x9;&#x9;c-0.29,0.45-0.67,1.04-1.64,1.04c-1.4,0-1.82-1.04-1.82-2.29v-3.98h1.49v3.71c0,0.95,0.26,1.34,0.89,1.34&#xA;&#x9;&#x9;c0.79,0,1.02-0.72,1.02-1.51v-3.54h1.49V21.57z"></path>
&#x9;<path class="st0" d="M145.19,17.43c0-0.38-0.01-0.74-0.05-1.02h1.34c0.01,0.37,0.05,0.76,0.05,1.13h0.02&#xA;&#x9;&#x9;c0.18-0.48,0.65-1.22,1.57-1.22c0.1,0,0.17,0.02,0.25,0.03v1.39c-0.13-0.04-0.26-0.06-0.42-0.06c-0.61,0-1.28,0.37-1.28,1.52v3.38&#xA;&#x9;&#x9;h-1.49V17.43z"></path>
&#x9;<path class="st0" d="M153.77,22.29c-0.31,0.13-0.96,0.4-1.85,0.4c-1.99,0-2.85-1.43-2.85-3.09c0-1.85,0.97-3.28,2.54-3.28&#xA;&#x9;&#x9;c1.33,0,2.47,0.78,2.47,3.3v0.29h-3.57c0,1.06,0.42,1.69,1.57,1.69c0.91,0,1.34-0.28,1.62-0.48L153.77,22.29z M152.64,18.97&#xA;&#x9;&#x9;c0-1.09-0.36-1.64-1.03-1.64c-0.78,0-1.1,0.83-1.1,1.64H152.64z"></path>
&#x9;<g>
&#x9;&#x9;<path class="st0" d="M161.38,14.08c1.74,0,3.33,1.3,3.33,4.31c0,3.01-1.6,4.31-3.33,4.31c-1.74,0-3.33-1.29-3.33-4.31&#xA;&#x9;&#x9;&#x9;C158.04,15.38,159.64,14.08,161.38,14.08 M161.38,21.52c0.97,0,1.75-0.83,1.75-3.13c0-2.3-0.78-3.13-1.75-3.13&#xA;&#x9;&#x9;&#x9;c-0.97,0-1.75,0.83-1.75,3.13C159.62,20.69,160.4,21.52,161.38,21.52"></path>
&#x9;&#x9;<path class="st0" d="M165.98,17.41c0-0.38-0.01-0.74-0.05-1.02h1.34c0.01,0.37,0.05,0.76,0.05,1.13h0.02&#xA;&#x9;&#x9;&#x9;c0.18-0.48,0.65-1.22,1.57-1.22c0.1,0,0.17,0.02,0.25,0.03v1.39c-0.13-0.04-0.27-0.06-0.42-0.06c-0.61,0-1.28,0.37-1.28,1.52v3.38&#xA;&#x9;&#x9;&#x9;h-1.49V17.41z"></path>
&#x9;&#x9;<path class="st0" d="M170.22,23.53c0.35,0.19,1.04,0.53,1.82,0.53c1.4,0,1.63-0.97,1.63-1.94v-0.59h-0.02&#xA;&#x9;&#x9;&#x9;c-0.24,0.48-0.66,1.05-1.63,1.05c-0.86,0-2.16-0.57-2.16-3.07c0-1.7,0.61-3.2,2.23-3.2c0.9,0,1.32,0.52,1.63,1.06h0.05&#xA;&#x9;&#x9;&#x9;c0-0.32,0.04-0.64,0.05-0.96h1.34c-0.02,0.32-0.05,0.65-0.05,0.97v4.56c0,1.93-0.59,3.31-2.85,3.31c-0.98,0-1.76-0.25-2.12-0.39&#xA;&#x9;&#x9;&#x9;L170.22,23.53z M172.37,21.48c0.94,0,1.31-0.67,1.31-2.08c0-1.3-0.49-1.99-1.2-1.98c-0.78,0.01-1.08,0.73-1.08,1.99&#xA;&#x9;&#x9;&#x9;C171.4,20.87,171.86,21.48,172.37,21.48"></path>
&#x9;&#x9;<path class="st0" d="M176.77,16.75c0.42-0.19,1.01-0.46,1.96-0.46c1.92,0,2.36,0.94,2.36,2.48v2.7c0,0.44,0.05,0.85,0.08,1.09&#xA;&#x9;&#x9;&#x9;h-1.34c-0.07-0.24-0.08-0.54-0.08-0.84h-0.02c-0.37,0.5-0.84,0.94-1.73,0.94c-0.96,0-1.85-0.66-1.85-1.81&#xA;&#x9;&#x9;&#x9;c0-1.68,1.37-2.1,3.25-2.1h0.3v-0.23c0-0.61-0.3-1.17-1.15-1.17c-0.74,0-1.4,0.36-1.69,0.6L176.77,16.75z M179.69,19.55h-0.13&#xA;&#x9;&#x9;&#x9;c-1.27,0-2.03,0.26-2.03,1.16c0,0.56,0.37,0.95,0.95,0.95c0.89,0,1.21-0.66,1.21-1.76V19.55z"></path>
&#x9;&#x9;<path class="st0" d="M182.46,17.41c0-0.38-0.01-0.74-0.05-1.02h1.39c0.01,0.31,0.05,0.64,0.05,0.95h0.02&#xA;&#x9;&#x9;&#x9;c0.22-0.37,0.64-1.04,1.64-1.04c1.4,0,1.82,1.04,1.82,2.29v3.98h-1.49v-3.71c0-0.95-0.24-1.34-0.85-1.34&#xA;&#x9;&#x9;&#x9;c-0.78,0-1.06,0.66-1.06,1.45v3.6h-1.49V17.41z"></path>
&#x9;&#x9;<path class="st0" d="M188.8,13.77h1.53v1.46h-1.53V13.77z M188.82,16.4h1.49v6.18h-1.49V16.4z"></path>
&#x9;&#x9;<polygon class="st0" points="191.46,21.29 194.1,17.52 191.54,17.52 191.54,16.39 195.59,16.39 195.59,17.67 193,21.44 &#xA;&#x9;&#x9;&#x9;195.67,21.44 195.67,22.57 191.46,22.57 &#x9;&#x9;"></polygon>
&#x9;&#x9;<path class="st0" d="M196.98,16.75c0.42-0.19,1.01-0.46,1.96-0.46c1.92,0,2.36,0.94,2.36,2.48v2.7c0,0.44,0.05,0.85,0.08,1.09&#xA;&#x9;&#x9;&#x9;h-1.34c-0.07-0.24-0.08-0.54-0.08-0.84h-0.02c-0.37,0.5-0.84,0.94-1.73,0.94c-0.96,0-1.85-0.66-1.85-1.81&#xA;&#x9;&#x9;&#x9;c0-1.68,1.37-2.1,3.25-2.1h0.3v-0.23c0-0.61-0.3-1.17-1.15-1.17c-0.74,0-1.4,0.36-1.69,0.6L196.98,16.75z M199.9,19.55h-0.13&#xA;&#x9;&#x9;&#x9;c-1.27,0-2.03,0.26-2.03,1.16c0,0.56,0.37,0.95,0.95,0.95c0.89,0,1.21-0.66,1.21-1.76V19.55z"></path>
&#x9;&#x9;<path class="st0" d="M203.22,15.12l1.49-0.46v1.73h1.24v1.09h-1.24v3.2c0,0.66,0.24,0.85,0.67,0.85c0.27,0,0.46-0.07,0.57-0.13&#xA;&#x9;&#x9;&#x9;v1.06c-0.23,0.11-0.55,0.2-1,0.2c-1.1,0-1.73-0.5-1.73-1.8v-3.38h-0.98v-1.09h0.98V15.12z"></path>
&#x9;&#x9;<path class="st0" d="M207.01,13.77h1.54v1.46h-1.54V13.77z M207.03,16.4h1.49v6.18h-1.49V16.4z"></path>
&#x9;&#x9;<path class="st0" d="M212.56,16.3c1.26,0,2.71,0.66,2.71,3.18c0,2.59-1.45,3.19-2.71,3.19c-1.26,0-2.72-0.6-2.72-3.19&#xA;&#x9;&#x9;&#x9;C209.84,16.96,211.3,16.3,212.56,16.3 M212.56,21.61c0.96,0,1.18-1.1,1.18-2.14c0-1.03-0.22-2.12-1.18-2.12&#xA;&#x9;&#x9;&#x9;c-0.96,0-1.19,1.09-1.19,2.12C211.37,20.51,211.6,21.61,212.56,21.61"></path>
&#x9;&#x9;<path class="st0" d="M216.45,17.41c0-0.38-0.01-0.74-0.05-1.02h1.39c0.01,0.31,0.05,0.64,0.05,0.95h0.02&#xA;&#x9;&#x9;&#x9;c0.22-0.37,0.64-1.04,1.64-1.04c1.4,0,1.82,1.04,1.82,2.29v3.98h-1.49v-3.71c0-0.95-0.24-1.34-0.85-1.34&#xA;&#x9;&#x9;&#x9;c-0.78,0-1.06,0.66-1.06,1.45v3.6h-1.49V17.41z"></path>
&#x9;</g>
&#x9;<path class="st0" d="M52.82,29.69c1.26,0,2.71,0.66,2.71,3.18c0,2.59-1.45,3.19-2.71,3.19s-2.72-0.6-2.72-3.19&#xA;&#x9;&#x9;C50.1,30.35,51.56,29.69,52.82,29.69 M52.82,35.01c0.96,0,1.18-1.1,1.18-2.14c0-1.03-0.22-2.12-1.18-2.12&#xA;&#x9;&#x9;c-0.96,0-1.19,1.09-1.19,2.12C51.64,33.9,51.86,35.01,52.82,35.01"></path>
&#x9;<path class="st0" d="M57.19,30.88h-1.03v-1.09h1.03v-1.26c0-0.89,0.42-1.7,1.78-1.7c0.39,0,0.78,0.09,1.07,0.15l-0.06,1.08&#xA;&#x9;&#x9;c-0.18-0.05-0.37-0.1-0.59-0.1c-0.43,0-0.71,0.3-0.71,0.77v1.07h1.13v1.09h-1.13v5.09h-1.49V30.88z"></path>
&#x9;<path class="st0" d="M64.37,28.52l1.49-0.46v1.73h1.23v1.09h-1.23v3.2c0,0.66,0.24,0.85,0.67,0.85c0.26,0,0.46-0.07,0.56-0.13v1.06&#xA;&#x9;&#x9;c-0.23,0.11-0.55,0.2-1,0.2c-1.1,0-1.73-0.5-1.73-1.8v-3.38h-0.98v-1.09h0.98V28.52z"></path>
&#x9;<path class="st0" d="M68.03,26.97h1.49v3.61h0.04c0.26-0.38,0.61-0.89,1.54-0.89c1.4,0,1.82,1.04,1.82,2.29v3.98h-1.49v-3.71&#xA;&#x9;&#x9;c0-0.95-0.24-1.34-0.85-1.34c-0.78,0-1.06,0.66-1.06,1.45v3.6h-1.49V26.97z"></path>
&#x9;<path class="st0" d="M78.79,35.67c-0.31,0.13-0.96,0.4-1.85,0.4c-1.99,0-2.86-1.43-2.86-3.09c0-1.85,0.97-3.28,2.54-3.28&#xA;&#x9;&#x9;c1.33,0,2.47,0.78,2.47,3.3v0.29h-3.57c0,1.06,0.42,1.69,1.57,1.69c0.91,0,1.34-0.28,1.62-0.48L78.79,35.67z M77.66,32.34&#xA;&#x9;&#x9;c0-1.09-0.36-1.64-1.03-1.64c-0.78,0-1.1,0.83-1.1,1.64H77.66z"></path>
&#x9;<path class="st0" d="M85.11,27.59v5.42c0,1.39,0.42,1.85,1.32,1.85c0.88,0,1.31-0.46,1.31-1.85v-5.42h1.54v5.42&#xA;&#x9;&#x9;c0,2.21-1.27,3.07-2.84,3.07c-1.58,0-2.85-0.87-2.85-3.07v-5.42H85.11z"></path>
&#x9;<path class="st0" d="M90.75,30.8c0-0.38-0.01-0.74-0.05-1.02h1.39c0.01,0.31,0.05,0.64,0.05,0.95h0.02&#xA;&#x9;&#x9;c0.22-0.37,0.64-1.04,1.64-1.04c1.4,0,1.82,1.04,1.82,2.29v3.98h-1.49v-3.71c0-0.95-0.24-1.34-0.85-1.34&#xA;&#x9;&#x9;c-0.78,0-1.06,0.66-1.06,1.45v3.6h-1.49V30.8z"></path>
&#x9;<path class="st0" d="M97.09,27.15h1.53v1.46h-1.53V27.15z M97.12,29.78h1.49v6.18h-1.49V29.78z"></path>
&#x9;<path class="st0" d="M100.64,28.51l1.49-0.46v1.73h1.23v1.09h-1.23v3.2c0,0.66,0.24,0.85,0.67,0.85c0.26,0,0.46-0.07,0.56-0.13&#xA;&#x9;&#x9;v1.06c-0.23,0.11-0.55,0.2-1,0.2c-1.1,0-1.72-0.5-1.72-1.8v-3.38h-0.98v-1.09h0.98V28.51z"></path>
&#x9;<path class="st0" d="M108.84,35.66c-0.31,0.13-0.96,0.4-1.85,0.4c-1.99,0-2.85-1.43-2.85-3.1c0-1.85,0.97-3.27,2.54-3.27&#xA;&#x9;&#x9;c1.33,0,2.47,0.78,2.47,3.3v0.29h-3.57c0,1.05,0.42,1.69,1.57,1.69c0.91,0,1.34-0.28,1.62-0.48L108.84,35.66z M107.72,32.34&#xA;&#x9;&#x9;c0-1.09-0.36-1.64-1.03-1.64c-0.78,0-1.1,0.83-1.1,1.64H107.72z"></path>
&#x9;<path class="st0" d="M115.37,26.96v7.94c0,0.45,0.01,0.83,0.05,1.06h-1.39c-0.02-0.18-0.05-0.54-0.05-0.96h-0.04&#xA;&#x9;&#x9;c-0.24,0.53-0.68,1.06-1.64,1.06c-1.54,0-2.17-1.47-2.17-3.18c0-2.02,0.8-3.19,2.14-3.19c0.89,0,1.38,0.5,1.59,0.98h0.02v-3.71&#xA;&#x9;&#x9;H115.37z M112.71,34.96c0.88,0,1.18-0.95,1.18-2.11c0-1.2-0.34-2.07-1.15-2.07c-0.83,0-1.11,0.8-1.11,2.04&#xA;&#x9;&#x9;C111.62,34.24,111.85,34.96,112.71,34.96"></path>
&#x9;<polygon class="st0" points="120.06,27.59 121.88,27.59 124.67,34.16 124.69,34.16 124.69,27.59 126.08,27.59 126.08,35.96 &#xA;&#x9;&#x9;124.25,35.96 121.48,29.43 121.45,29.43 121.45,35.96 120.06,35.96 &#x9;"></polygon>
&#x9;<path class="st0" d="M127.92,30.14c0.42-0.19,1.01-0.45,1.96-0.45c1.92,0,2.36,0.93,2.36,2.48v2.7c0,0.44,0.05,0.85,0.08,1.09&#xA;&#x9;&#x9;h-1.34c-0.07-0.24-0.08-0.54-0.08-0.84h-0.02c-0.37,0.5-0.84,0.93-1.73,0.93c-0.96,0-1.85-0.66-1.85-1.81c0-1.68,1.37-2.1,3.25-2.1&#xA;&#x9;&#x9;h0.3v-0.23c0-0.61-0.3-1.17-1.15-1.17c-0.74,0-1.4,0.36-1.69,0.6L127.92,30.14z M130.85,32.93h-0.13c-1.27,0-2.03,0.26-2.03,1.16&#xA;&#x9;&#x9;c0,0.56,0.37,0.95,0.95,0.95c0.89,0,1.21-0.66,1.21-1.76V32.93z"></path>
&#x9;<path class="st0" d="M134.17,28.51l1.49-0.46v1.73h1.23v1.09h-1.23v3.2c0,0.66,0.24,0.85,0.67,0.85c0.26,0,0.46-0.07,0.56-0.13&#xA;&#x9;&#x9;v1.06c-0.23,0.11-0.55,0.2-1,0.2c-1.1,0-1.73-0.5-1.73-1.8v-3.38h-0.98v-1.09h0.98V28.51z"></path>
&#x9;<path class="st0" d="M137.96,27.15h1.54v1.46h-1.54V27.15z M137.98,29.78h1.49v6.18h-1.49V29.78z"></path>
&#x9;<path class="st0" d="M143.51,29.69c1.26,0,2.71,0.66,2.71,3.18c0,2.59-1.45,3.19-2.71,3.19c-1.26,0-2.72-0.6-2.72-3.19&#xA;&#x9;&#x9;C140.79,30.35,142.25,29.69,143.51,29.69 M143.51,35c0.96,0,1.18-1.1,1.18-2.13c0-1.03-0.21-2.12-1.18-2.12&#xA;&#x9;&#x9;c-0.96,0-1.19,1.09-1.19,2.12C142.32,33.9,142.55,35,143.51,35"></path>
&#x9;<path class="st0" d="M147.39,30.8c0-0.38-0.01-0.74-0.05-1.02h1.39c0.01,0.31,0.05,0.64,0.05,0.95h0.02&#xA;&#x9;&#x9;c0.22-0.37,0.64-1.04,1.64-1.04c1.4,0,1.82,1.04,1.82,2.29v3.98h-1.49v-3.71c0-0.95-0.24-1.34-0.85-1.34&#xA;&#x9;&#x9;c-0.78,0-1.06,0.66-1.06,1.45v3.6h-1.49V30.8z"></path>
&#x9;<path class="st0" d="M153.45,34.52c0.24,0.1,0.85,0.41,1.55,0.41c0.54,0,0.96-0.13,0.96-0.61c0-0.24-0.12-0.47-0.66-0.78&#xA;&#x9;&#x9;l-0.61-0.36c-0.62-0.37-1.31-0.77-1.31-1.74c0-0.85,0.83-1.75,2.14-1.75c0.79,0,1.4,0.2,1.55,0.25l-0.08,1.15&#xA;&#x9;&#x9;c-0.37-0.14-0.77-0.28-1.31-0.28c-0.6,0-0.85,0.23-0.85,0.6c0,0.33,0.26,0.51,0.7,0.79l0.73,0.47c0.77,0.49,1.15,0.84,1.15,1.56&#xA;&#x9;&#x9;c0,1.14-0.96,1.82-2.3,1.82c-0.77,0-1.4-0.18-1.72-0.3L153.45,34.52z"></path>
</g>
</svg>