<?xml version="1.0"?>
<svg id="Layer_1" xmlns="http://www.w3.org/2000/svg" viewBox="0 0 1872.44 1190.55">
  <defs>
    
  </defs>
  <path class="cls-4" d="M1046.86,231.12c124.93,2.75,249.7,9.14,374.54,12.12,84.38,2.02,141.76,48.01,163.64,127.44,2.07,7.5,2.59,14.82,2.6,22.35.05,61.82-1.28,123.68.4,185.46,2.17,79.82-61.39,154.51-145.95,160.96-12.9.98-18.12,4.43-17.92,19,.97,71.08,34.02,124.64,88.29,167.24,8.42,6.61,19.71,12.21,12.46,25.42-6.76,12.33-18.09,8.23-28.52,5.26-88.85-25.36-172.37-61.71-245.72-119.07-27.94-21.85-53.73-46.01-74.71-74.59-8.52-11.62-17.72-15.64-31.64-15.12-111.01,4.14-222.07,3.24-333.11,1.55-119.84-1.83-239.67-4.29-359.48-7.65-81.97-2.3-137.74-45.34-161.01-120.66-3.8-12.29-5.24-24.99-5.2-37.21.25-66.82-3.84-133.73,1.98-200.44,5.95-68.18,70.71-132.98,139.05-137.48,93.13-6.13,186.45-8.39,279.75-11.22,90.83-2.75,181.65-3.62,272.5-3.36,22.68.07,45.37,0,68.06,0ZM879.24,677.89c1.55.92,3.1,1.84,4.65,2.77l.07-.06c.62,1.72.73,4.07,1.95,5.07,43.71,36.11,122.4,10.72,137.17-43.96,3.68-13.62,2.57-24.81-11.16-32-5.15-12.87-14.62-17.94-28.26-15.97-14.7,2.12-18.99,12.76-20.6,25.24-1.06,8.21-3.25,15.9-7.65,22.86-12.61,19.93-33.06,22.43-49.81,6.2.78-10.44-4.93-19.27-7.29-28.93-13.71-56.06-14.33-112.76-7.05-169.54,3.65-28.49,9.62-56.8,23.95-82.41,9.51-17,22.18-28.87,43.57-26.19,9.2,12.87,11.23,27.87,11.57,42.95.58,25.77.34,51.56.18,77.34-.1,16,3.63,29.9,18.78,38.33,8.67,16.61,21.84,19.65,37.64,11.39,13.67-7.14,21.61-19.09,22.47-34.53,1.79-31.95.45-63.73-10.89-94.11-3.51-9.41-4.34-21.2-16.45-25.26,0,0,.02-.15.02-.15-.87-1.6-1.74-3.2-2.61-4.8-.66-.56-1.04-1.27-1.14-2.13-.98-1.75-1.96-3.5-2.93-5.25-41.8-51.12-95.96-59.81-145.45-23.42-22.54,16.58-37.5,38.89-47.59,64.45-24.42,61.85-25.55,125.03-9.49,188.99,9.75,38.83,27.73,72.71,59.35,98.37.85,3.81,3.54,4.92,7.06,4.78l-.04-.03ZM530.59,579.62l.06.08c.09-35.62.09-71.24.34-106.86.06-9.39-.49-17.9-12.53-19.15-2.92-7.33-3.89-17.34-15.55-14.64-10.47,2.42-9.58,11.62-10.17,19.79-2.72,37.53-2.8,75.3-10.05,112.41-2.66,13.59-7.99,25.21-23.71,27.81-.09-14.41-.53-28.83-.21-43.23,1.16-52.51,2.86-105.01,3.66-157.52.19-12.03,1.14-25.72-14.27-31.23-6.73-16.99-19.54-24.38-37.27-21.82-17.42,2.52-28.01,13.3-31.73,30.5-1.46,6.75-2.64,13.59-3.35,20.45-4.82,47.11-5.41,94.33.44,141.29,4.15,33.33,5.5,68.59,37.26,90.96,20.1,24.27,53.91,26.9,76.1,5.47,9.41-9.08,17.91-19.1,26.82-28.69,6,5.54,11.99,11.08,17.99,16.62,1.46.91,2.91,1.83,4.37,2.74,0,0-.12-.11-.12-.11,15.87,20.5,46.1,21.74,67.69,2.54,24.58-21.85,30.35-52.44,38.22-82.19,2.89-10.93-.44-23.62,8.93-32.76,1.31,46.06,5.79,90.98,44.21,123.8,1.67,1.07,3.34,2.15,5,3.22.85.08,1.56.44,2.13,1.06,11.19,14.95,27.95,19.61,46.09,12.8,23.08-8.66,48.56-44.78,48.24-69.43-.12-9.22-3.39-17.38-14.27-19.23-1.35-6.4-3.13-13.03-11.19-12.93-8.84.1-8.38,8.16-9.77,13.93-2.51,10.39-3.95,21.06-9.07,30.68-7.75,14.58-18.48,21.98-35.34,14.84-1.58-19.95-2.93-39.89-3.5-59.94-.54-19.05,3.44-28.02,25.33-29.18,21.4-1.14,45.46-5.82,51.97-32.32,5.58-22.74,3.93-44.89-16.19-61.51-2.18-3.08-4.31-6.2-6.55-9.24-28.32-38.43-80.86-33.61-100.93,9.37-9.45,20.25-12.81,41.98-14.59,64.03-4.83-5.34-2.81-11.88-2.87-17.92-.26-24.33-.28-48.67-.24-73.01.02-12.57-2.99-23.48-15.02-29.95-11.49-18.95-24.65-24.64-43.87-19.8-20.31,5.12-23.35,19.97-23.29,37.79.07,23.33-.09,46.72-1.72,69.98-2.49,35.77-3.35,71.91-14.42,106.46-2.76,8.61-3.58,21.66-19.02,17.58-1.35-1.17-2.7-2.35-4.05-3.52ZM1094.99,640.06c16.88,22.61,51.25,26.35,72.17,7.84,3.55.79,7.09,1.57,10.64,2.36,7.74,16.78,18.16,19.78,31.96,9.39,10.29-7.76,14-19.24,17.12-30.77,11.78-43.49,15.2-87.98,11.55-132.63-1.47-18.02-4.27-37.57-21.55-49.72-.6-.68-.97-1.48-1.11-2.38-.94-1.66-1.87-3.32-2.81-4.99-20.76-34.02-52.23-42.25-89.54-38.29-41.09,4.37-66.71,32.26-66.06,72.9.18,11.18,3.53,19.67,14.66,23.74,2.24,12.65,13.97,12.5,22.51,16.66-44.61,36.72-47.04,82.05-6.5,121.44.82,2.32,2.42,3.46,4.92,3.25.83.14,1.52.53,2.05,1.19ZM1344.56,473.69c10.99,28.15,21.3,56.58,33.16,84.35,11.22,26.28,25.29,50.92,50.6,66.78,15.9,18.53,25.43,19.19,41.42,2.51,12.13-12.64,18.42-28.62,22.32-45.06,16.24-68.63,21.56-138.51,18.67-208.74-.67-16.18,3.16-37.98-19.23-46.91-7.33-13.26-16.47-24.89-33.53-22.27-18.41,2.82-25.12,17.17-28.57,33.53-.39,1.85-.61,3.74-.78,5.62-2.7,30.75-5.01,61.54-8.16,92.24-3.86,37.52-2.23,75.52-9.15,115.91-3.85-9.97-6.57-16.94-9.23-23.93-23.25-61.16-45.66-122.68-75-181.31-8.34-16.67-18.33-32.96-40.53-31.14-16.98,1.39-27.74,16.54-32.64,41.1-5.7,28.55-6.79,57.51-8.97,86.4-4.99,66.26-.68,131.84,13.26,196.78,3.39,15.78,8.64,30.5,25.44,37.22,11.15,17.22,28.89,18.03,38.17,1.13,3.86-7.02,6.61-15.15,7.74-23.08,4.87-34.18,6.57-68.63,8.91-103.06,1.77-25.97-.75-52.48,6.1-78.09Z"></path>
  <path class="cls-5" d="M1428.32,624.82c-25.3-15.86-39.38-40.5-50.6-66.78-11.86-27.78-22.17-56.21-33.16-84.35-4.53-13.11-9.06-26.22-13.59-39.33-1.77.38-3.54.76-5.3,1.14,0,20.46.43,40.93-.12,61.37-.56,20.68-1.83,41.36-3.26,62.01-2.04,29.36-3.38,58.8-9.8,87.71-3.6,16.18-11.43,27.56-28.84,30.18-16.8-6.72-22.05-21.44-25.44-37.22-13.94-64.94-18.25-130.52-13.26-196.78,2.17-28.9,3.27-57.85,8.97-86.4,4.9-24.56,15.66-39.71,32.64-41.1,22.2-1.82,32.19,14.47,40.53,31.14,29.34,58.63,51.75,120.15,75,181.31,2.66,6.99,5.38,13.96,9.23,23.93,6.92-40.39,5.29-78.38,9.15-115.91,3.16-30.7,5.46-61.49,8.16-92.24.17-1.88.39-3.77.78-5.62,3.46-16.36,10.17-30.71,28.57-33.53,17.06-2.62,26.2,9.02,33.53,22.27,9.54,52.54,4.28,105.11-.72,157.52-3.63,38.01-8.32,76.06-24.59,111.43-7.55,16.42-18.3,28.47-37.87,29.24Z"></path>
  <path class="cls-1" d="M458.97,599.04c15.73-2.6,21.06-14.22,23.71-27.81,7.25-37.11,7.33-74.88,10.05-112.41.59-8.17-.3-17.37,10.17-19.79,11.66-2.7,12.63,7.31,15.55,14.65-3.64,33.59-3.15,67.24-.78,100.84.68,9.69,1.87,20.31,12.98,25.18,0,0-.06-.08-.05-.08,1.35,1.17,2.7,2.35,4.05,3.52,15.44,4.08,16.26-8.97,19.02-17.58,11.08-34.55,11.93-70.69,14.42-106.46,1.62-23.26,1.79-46.65,1.72-69.98-.06-17.82,2.98-32.67,23.29-37.79,19.22-4.84,32.38.84,43.87,19.8.74,15.65,1.94,31.29,2.12,46.95.64,54.13-1.94,108.04-23.37,158.72-17.13,40.52-33.53,49.69-77.04,47.66,0,0,.12.11.12.11-1.46-.91-2.91-1.83-4.37-2.74-6-5.54-11.99-11.08-17.99-16.62-3.18-6.73-6.86-13.1-14.15-19.45-19.76,35.21-45.91,57.3-88.78,42.68-31.76-22.37-33.1-57.63-37.26-90.96-5.85-46.96-5.26-94.18-.44-141.29.7-6.86,1.89-13.71,3.35-20.45,3.71-17.2,14.31-27.98,31.73-30.5,17.73-2.56,30.54,4.83,37.27,21.82-1.47,65.77-2.95,131.54-4.38,197.31-.21,9.44.4,18.85,3.71,27.8,1.9,5.14,3.46,11.62,11.49,6.88Z"></path>
  <path class="cls-1" d="M989.3,499.58c-15.15-8.42-18.88-22.32-18.78-38.33.16-25.78.41-51.57-.18-77.34-.34-15.08-2.38-30.08-11.57-42.95-14.22-19.09-30.57-20.79-46.83-4.49-13.33,13.37-19.86,30.57-24.46,48.26-17.32,66.69-19.23,134.21-7.09,201.82,3.91,21.8,7.21,44.95,25.2,61.48,16.75,16.23,37.2,13.72,49.81-6.2,4.41-6.96,6.59-14.65,7.65-22.86,1.61-12.48,5.9-23.12,20.6-25.24,13.64-1.97,23.1,3.11,28.26,15.97-4.72,34.79-23.1,58.97-55.98,71.78-24.09,9.38-48.06,5.51-71.98-.89,0,0-.07.06-.07.07-1.55-.92-3.1-1.85-4.65-2.77,0,0,.04.03.04.03-1.23-3.25-3.98-4.26-7.06-4.78-31.62-25.65-49.6-59.53-59.35-98.37-16.06-63.96-14.93-127.14,9.49-188.99,10.09-25.56,25.05-47.87,47.59-64.45,49.49-36.4,103.66-27.7,145.45,23.42.98,1.75,1.96,3.5,2.93,5.25.1.86.48,1.57,1.14,2.13.87,1.6,1.74,3.2,2.61,4.8,0,0-.02.15-.01.14,9.81,31.94,15.13,64.36,12.96,98.02-1.97,30.6-15.15,44.2-45.73,44.5Z"></path>
  <path class="cls-2" d="M1072.02,497.52c-11.13-4.07-14.49-12.56-14.66-23.74-.64-40.64,24.98-68.54,66.06-72.9,37.31-3.97,68.78,4.27,89.54,38.29.94,1.66,1.87,3.32,2.81,4.98.14.9.51,1.69,1.11,2.38,16.89,56.85,8.42,113.03-4.94,168.94-4.3,18-12.74,33.02-34.13,34.78-3.55-.79-7.09-1.57-10.64-2.36-.54-5.86-1.08-11.72-1.87-20.21-22.11,19.1-45.85,18.28-70.3,12.36-.53-.65-1.22-1.05-2.06-1.19-1.64-1.08-3.28-2.17-4.91-3.26-40.53-39.39-38.11-84.72,6.5-121.44,4.02-2,8.04-4,12.06-5.99,21.91-6.77,42.88-3.04,64.92,8.4-2.09-30.42,4.21-59.02-12.07-84.71-15.52-21.42-37.84-20.85-53.31,1.01-9.52,13.45-12.07,29-13.22,44.56-1.04,13.99-6.59,20.98-20.88,20.08ZM1118.23,620.5c23.71,10.18,48.72-3.89,51.76-30.41,1.84-16.04.85-32.4,1.12-48.62-9.43-19.16-34.2-24.14-51.99-10.45-22.31,17.17-22.86,71.15-.9,89.48Z"></path>
  <path class="cls-2" d="M704.85,640.12c-.58-.62-1.29-.98-2.14-1.06-1.67-1.07-3.33-2.15-5-3.22-38.42-32.82-42.9-77.74-44.2-123.8,2.93-6.49,2.39-13.26,1.58-20.04,1.78-22.05,5.13-43.78,14.59-64.03,20.07-42.98,72.61-47.8,100.93-9.37,2.24,3.04,4.37,6.16,6.55,9.24,9.95,59.4,1.09,71.36-59.36,80.18-1.24.18-2.49.3-3.74.43-7.44.81-11.02,5.07-11.42,12.43-1.33,24.49-1.21,48.95,4.08,73.01,1.57,7.13,3.64,15.03,12.83,16.9,16.86,7.14,27.59-.26,35.34-14.84,5.12-9.62,6.56-20.29,9.07-30.68,1.39-5.77.93-13.82,9.77-13.93,8.06-.09,9.84,6.54,11.19,12.93-5.98,50.52-34.2,77.26-80.06,75.87ZM750.69,431.72c-1.32-7.98-7.2-12.92-14-13.57-18.66-1.78-24.12,13.18-25.27,26.55-1.01,11.82-17.92,30.33,9.11,35.72,37.56,1.01,47.64-15.27,30.15-48.7Z"></path>
  <path class="cls-3" d="M1428.32,624.82c19.56-.76,30.32-12.82,37.87-29.24,16.26-35.37,20.95-73.42,24.59-111.43,5.01-52.41,10.27-104.98.72-157.52,22.38,8.93,18.56,30.73,19.22,46.91,2.89,70.22-2.43,140.11-18.67,208.74-3.89,16.44-10.19,32.42-22.32,45.06-15.99,16.67-25.52,16.02-41.42-2.51Z"></path>
  <path class="cls-3" d="M905.59,648.04c-18-16.53-21.29-39.69-25.2-61.48-12.13-67.61-10.23-135.13,7.09-201.82,4.6-17.69,11.13-34.89,24.46-48.26,16.25-16.3,32.61-14.6,46.83,4.49-21.38-2.68-34.05,9.18-43.57,26.19-14.33,25.61-20.3,53.92-23.95,82.41-7.28,56.78-6.65,113.48,7.05,169.54,2.36,9.66,8.07,18.49,7.29,28.93Z"></path>
  <path class="cls-3" d="M655.09,492c.81,6.78,1.35,13.55-1.58,20.04-9.37,9.14-6.04,21.84-8.93,32.77-7.86,29.75-13.64,60.33-38.22,82.19-21.6,19.2-51.82,17.96-67.69-2.54,43.51,2.03,59.91-7.14,77.04-47.66,21.43-50.68,24.01-104.59,23.37-158.72-.18-15.65-1.39-31.3-2.12-46.95,12.03,6.46,15.04,17.37,15.02,29.95-.03,24.34-.02,48.67.24,73.01.06,6.04-1.96,12.58,2.87,17.92Z"></path>
  <path class="cls-3" d="M1283.64,676.77c17.42-2.62,25.25-14,28.84-30.18,6.42-28.92,7.76-58.35,9.8-87.71,1.43-20.65,2.7-41.32,3.26-62.01.55-20.44.12-40.91.12-61.37,1.77-.38,3.54-.76,5.3-1.14,4.53,13.11,9.06,26.22,13.59,39.33-6.84,25.61-4.33,52.11-6.1,78.08-2.34,34.43-4.05,68.88-8.91,103.06-1.13,7.93-3.88,16.06-7.74,23.08-9.29,16.89-27.02,16.09-38.17-1.13Z"></path>
  <path class="cls-3" d="M719.54,610.78c-9.2-1.87-11.26-9.77-12.83-16.9-5.29-24.06-5.41-48.51-4.08-73.01.4-7.36,3.98-11.62,11.42-12.43,1.25-.14,2.5-.25,3.74-.43,60.46-8.83,69.31-20.78,59.36-80.18,20.12,16.61,21.77,38.76,16.19,61.51-6.5,26.5-30.56,31.18-51.97,32.32-21.89,1.17-25.87,10.14-25.33,29.18.57,20.05,1.92,39.98,3.5,59.94Z"></path>
  <path class="cls-3" d="M1177.8,650.26c21.39-1.76,29.83-16.79,34.13-34.78,13.37-55.92,21.83-112.09,4.94-168.94,17.28,12.15,20.08,31.7,21.55,49.71,3.65,44.65.23,89.14-11.55,132.63-3.12,11.52-6.83,23.01-17.12,30.77-13.8,10.4-24.22,7.39-31.96-9.39Z"></path>
  <path class="cls-3" d="M458.97,599.04c-8.02,4.74-9.58-1.74-11.49-6.88-3.31-8.95-3.91-18.35-3.71-27.8,1.44-65.77,2.92-131.54,4.38-197.31,15.4,5.51,14.45,19.2,14.27,31.23-.81,52.51-2.51,105.01-3.66,157.52-.32,14.4.12,28.82.21,43.23Z"></path>
  <path class="cls-3" d="M883.96,680.6c23.92,6.4,47.89,10.27,71.98.89,32.88-12.81,51.26-36.99,55.98-71.78,13.74,7.18,14.84,18.38,11.16,32-14.77,54.68-93.46,80.07-137.17,43.96-1.22-1-1.32-3.35-1.95-5.07Z"></path>
  <path class="cls-3" d="M989.3,499.58c30.58-.3,43.76-13.9,45.73-44.5,2.17-33.67-3.15-66.08-12.96-98.02,12.11,4.07,12.93,15.86,16.45,25.27,11.35,30.38,12.68,62.17,10.89,94.11-.86,15.44-8.8,27.4-22.47,34.53-15.8,8.25-28.98,5.21-37.64-11.39Z"></path>
  <path class="cls-3" d="M704.85,640.12c45.86,1.4,74.08-25.35,80.06-75.87,10.88,1.86,14.15,10.02,14.27,19.24.32,24.66-25.16,60.78-48.24,69.43-18.14,6.8-34.89,2.15-46.09-12.8Z"></path>
  <path class="cls-3" d="M1106.58,508.19c-4.02,2-8.04,4-12.06,5.99-8.53-4.16-20.26-4.01-22.51-16.66,14.29.9,19.85-6.09,20.88-20.08,1.15-15.56,3.7-31.11,13.22-44.56,15.48-21.86,37.79-22.43,53.31-1.01-28.46-.39-41.77,10.05-49.22,37.56-3.46,12.8-4.15,25.67-3.63,38.75Z"></path>
  <path class="cls-3" d="M413.51,628.43c42.87,14.62,69.02-7.47,88.78-42.68,7.28,6.35,10.97,12.72,14.15,19.45-8.91,9.59-17.41,19.61-26.82,28.69-22.19,21.43-56.01,18.8-76.1-5.47Z"></path>
  <path class="cls-3" d="M530.64,579.69c-11.11-4.87-12.29-15.49-12.98-25.18-2.37-33.6-2.86-67.25.78-100.84,12.04,1.26,12.6,9.76,12.54,19.15-.24,35.62-.24,71.24-.34,106.86Z"></path>
  <path class="cls-3" d="M1094.99,640.06c24.45,5.91,48.19,6.74,70.3-12.36.78,8.49,1.32,14.35,1.87,20.21-20.92,18.51-55.29,14.77-72.17-7.84Z"></path>
  <path class="cls-3" d="M872.22,673.14c3.08.53,5.83,1.53,7.06,4.78-3.52.13-6.21-.98-7.06-4.78Z"></path>
  <path class="cls-3" d="M534.64,583.13c-1.35-1.17-2.7-2.35-4.05-3.52,1.35,1.17,2.7,2.35,4.05,3.52Z"></path>
  <path class="cls-3" d="M534.42,621.82c1.46.91,2.91,1.83,4.37,2.74-1.46-.91-2.91-1.83-4.37-2.74Z"></path>
  <path class="cls-3" d="M1215.77,444.15c-.94-1.66-1.87-3.32-2.81-4.98.94,1.66,1.87,3.32,2.81,4.98Z"></path>
  <path class="cls-3" d="M697.71,635.84c1.66,1.07,3.33,2.15,5,3.22-1.66-1.07-3.33-2.15-5-3.22Z"></path>
  <path class="cls-3" d="M1088.02,635.62c1.64,1.09,3.27,2.17,4.91,3.26-2.49.21-4.09-.93-4.91-3.26Z"></path>
  <path class="cls-3" d="M1022.08,356.92c-.87-1.6-1.74-3.2-2.61-4.8.87,1.6,1.74,3.2,2.61,4.8Z"></path>
  <path class="cls-3" d="M1018.33,349.99c-.98-1.75-1.96-3.5-2.93-5.25.98,1.75,1.96,3.5,2.93,5.25Z"></path>
  <path class="cls-3" d="M879.24,677.89c1.55.93,3.1,1.85,4.65,2.77-1.55-.93-3.1-1.85-4.65-2.77Z"></path>
  <path class="cls-4" d="M1106.58,508.19c-.52-13.08.17-25.95,3.63-38.75,7.44-27.51,20.76-37.96,49.22-37.56,16.28,25.69,9.98,54.29,12.07,84.71-22.04-11.43-43.01-15.17-64.92-8.4Z"></path>
  <path class="cls-4" d="M1171.12,541.47c-.28,16.22.71,32.58-1.12,48.62-3.04,26.52-28.06,40.58-51.76,30.41-.16-13.21-.87-26.43-.36-39.61,1.24-31.9,22.15-47.16,53.24-39.41Z"></path>
  <path class="cls-3" d="M1171.12,541.47c-31.09-7.75-52,7.51-53.24,39.41-.51,13.18.2,26.41.36,39.61-21.95-18.33-21.41-72.31.9-89.48,17.79-13.68,42.56-8.7,51.99,10.45Z"></path>
  <path class="cls-4" d="M750.69,431.72c17.49,33.42,7.41,49.7-30.15,48.7,1.24-6.64,1.66-13.58,3.9-19.86,4.67-13.07,7.24-28.61,26.25-28.84Z"></path>
  <path class="cls-3" d="M750.69,431.72c-19.01.23-21.58,15.77-26.25,28.84-2.25,6.28-2.66,13.22-3.9,19.86-27.03-5.38-10.12-23.9-9.11-35.72,1.14-13.37,6.61-28.33,25.27-26.55,6.8.65,12.68,5.59,14,13.57Z"></path>
</svg>